<svg width="142" height="20" viewBox="0 0 142 20" fill="none" xmlns="http://www.w3.org/2000/svg">
<path d="M9.04283 19.1774C7.28822 19.1774 5.85683 17.746 5.85683 15.9914C5.85683 14.5139 6.50326 13.7289 7.93465 12.413C8.48874 11.905 8.71961 11.4664 8.71961 11.0508V10.6353H8.30404C7.81922 10.6353 7.17278 11.1201 6.34165 12.0667C5.51052 13.0363 4.51778 13.498 3.36344 13.498C1.60883 13.498 0.177435 12.0667 0.177435 10.312C0.177435 8.55743 1.60883 7.12604 3.36344 7.12604C4.54087 7.12604 5.51052 7.61087 6.31857 8.53435C7.12661 9.45783 7.79613 9.94265 8.30404 9.94265H8.71961V9.57326C8.71961 9.15769 8.48874 8.71904 7.93465 8.21113L7.40365 7.7263C6.6187 7.01061 5.85683 6.06404 5.85683 4.63265C5.85683 2.87804 7.26513 1.44665 9.04283 1.44665C10.7974 1.44665 12.2288 2.90113 12.2288 4.63265C12.2288 5.81009 11.744 6.77974 10.8205 7.58778C9.89704 8.39583 9.41222 9.04226 9.41222 9.57326V9.94265H9.78161C10.3126 9.94265 10.9821 9.45783 11.7671 8.53435C12.552 7.58778 13.5448 7.12604 14.7222 7.12604C16.4768 7.12604 17.9082 8.53435 17.9082 10.312C17.9082 12.0667 16.4768 13.498 14.7222 13.498C13.2677 13.498 12.3904 12.7823 11.1437 11.4202C10.6358 10.8661 10.1972 10.6353 9.78161 10.6353H9.41222V11.0508C9.41222 11.5818 9.87396 12.2744 10.8205 13.0363C11.7671 13.7982 12.2288 14.7909 12.2288 15.9914C12.2288 17.746 10.8205 19.1774 9.04283 19.1774ZM35.5012 15.1372H29.4524L28.4828 18H24.3502L30.2143 1.79296H34.7855L40.6496 18H36.4709L35.5012 15.1372ZM34.4854 12.0897L32.4768 6.15639L30.4913 12.0897H34.4854ZM46.3822 0.915651V18H42.4343V0.915651H46.3822ZM65.6811 4.97896C67.2818 4.97896 68.5516 5.46378 69.4904 6.43343C70.4447 7.40309 70.9218 8.74983 70.9218 10.4737V18H66.997V11.0047C66.997 10.1735 66.7739 9.53478 66.3275 9.08843C65.8966 8.62669 65.2963 8.39583 64.5267 8.39583C63.7572 8.39583 63.1492 8.62669 62.7029 9.08843C62.2719 9.53478 62.0564 10.1735 62.0564 11.0047V18H58.1317V11.0047C58.1317 10.1735 57.9085 9.53478 57.4621 9.08843C57.0312 8.62669 56.4309 8.39583 55.6613 8.39583C54.8918 8.39583 54.2838 8.62669 53.8375 9.08843C53.4065 9.53478 53.191 10.1735 53.191 11.0047V18H49.2432V5.11748H53.191V6.73356C53.5912 6.19487 54.1145 5.77161 54.761 5.46378C55.4074 5.14056 56.1385 4.97896 56.9542 4.97896C57.9239 4.97896 58.7858 5.18674 59.54 5.6023C60.3095 6.01787 60.9098 6.61043 61.3407 7.38C61.7871 6.672 62.395 6.09482 63.1646 5.64848C63.9342 5.20213 64.773 4.97896 65.6811 4.97896ZM72.8979 11.5357C72.8979 10.212 73.1442 9.04996 73.6367 8.04952C74.1446 7.04909 74.8295 6.27952 75.6914 5.74082C76.5534 5.20213 77.5153 4.93278 78.5773 4.93278C79.4854 4.93278 80.2781 5.11748 80.9553 5.48687C81.6479 5.85626 82.1789 6.34109 82.5483 6.94135V5.11748H86.4961V18H82.5483V16.1761C82.1635 16.7764 81.6248 17.2612 80.9322 17.6306C80.255 18 79.4623 18.1847 78.5542 18.1847C77.5076 18.1847 76.5534 17.9153 75.6914 17.3767C74.8295 16.8226 74.1446 16.0453 73.6367 15.0449C73.1442 14.029 72.8979 12.8593 72.8979 11.5357ZM82.5483 11.5587C82.5483 10.5737 82.2712 9.79643 81.7171 9.22696C81.1784 8.65748 80.5166 8.37274 79.7317 8.37274C78.9467 8.37274 78.2772 8.65748 77.7231 9.22696C77.1844 9.78104 76.9151 10.5506 76.9151 11.5357C76.9151 12.5207 77.1844 13.3057 77.7231 13.8905C78.2772 14.46 78.9467 14.7447 79.7317 14.7447C80.5166 14.7447 81.1784 14.46 81.7171 13.8905C82.2712 13.321 82.5483 12.5438 82.5483 11.5587ZM88.5673 11.5587C88.5673 10.2197 88.8366 9.04996 89.3753 8.04952C89.9294 7.04909 90.6913 6.27952 91.6609 5.74082C92.646 5.20213 93.7696 4.93278 95.0316 4.93278C96.6477 4.93278 97.9945 5.35604 99.0719 6.20256C100.165 7.04909 100.88 8.24191 101.219 9.78104H97.0171C96.6631 8.796 95.9782 8.30348 94.9624 8.30348C94.239 8.30348 93.6618 8.58822 93.2309 9.15769C92.7999 9.71178 92.5844 10.5121 92.5844 11.5587C92.5844 12.6053 92.7999 13.4134 93.2309 13.9829C93.6618 14.537 94.239 14.814 94.9624 14.814C95.9782 14.814 96.6631 14.3215 97.0171 13.3364H101.219C100.88 14.8448 100.165 16.0299 99.0719 16.8918C97.9791 17.7537 96.6323 18.1847 95.0316 18.1847C93.7696 18.1847 92.646 17.9153 91.6609 17.3767C90.6913 16.838 89.9294 16.0684 89.3753 15.068C88.8366 14.0675 88.5673 12.8978 88.5673 11.5587ZM116.052 5.11748V18H112.104V16.2454C111.704 16.8149 111.157 17.2766 110.465 17.6306C109.787 17.9692 109.033 18.1385 108.202 18.1385C107.217 18.1385 106.347 17.923 105.593 17.4921C104.839 17.0457 104.254 16.407 103.839 15.5759C103.423 14.7447 103.215 13.7674 103.215 12.6438V5.11748H107.14V12.1128C107.14 12.9747 107.363 13.6443 107.81 14.1214C108.256 14.5985 108.856 14.8371 109.61 14.8371C110.38 14.8371 110.988 14.5985 111.434 14.1214C111.881 13.6443 112.104 12.9747 112.104 12.1128V5.11748H116.052ZM122.835 7.26456C123.297 6.55656 123.874 6.00248 124.567 5.6023C125.259 5.18674 126.029 4.97896 126.875 4.97896V9.15769H125.79C124.805 9.15769 124.066 9.37317 123.574 9.80413C123.081 10.2197 122.835 10.9585 122.835 12.0205V18H118.887V5.11748H122.835V7.26456ZM127.977 11.5357C127.977 10.212 128.224 9.04996 128.716 8.04952C129.224 7.04909 129.909 6.27952 130.771 5.74082C131.633 5.20213 132.595 4.93278 133.657 4.93278C134.565 4.93278 135.358 5.11748 136.035 5.48687C136.727 5.85626 137.258 6.34109 137.628 6.94135V5.11748H141.576V18H137.628V16.1761C137.243 16.7764 136.704 17.2612 136.012 17.6306C135.335 18 134.542 18.1847 133.634 18.1847C132.587 18.1847 131.633 17.9153 130.771 17.3767C129.909 16.8226 129.224 16.0453 128.716 15.0449C128.224 14.029 127.977 12.8593 127.977 11.5357ZM137.628 11.5587C137.628 10.5737 137.351 9.79643 136.797 9.22696C136.258 8.65748 135.596 8.37274 134.811 8.37274C134.026 8.37274 133.357 8.65748 132.803 9.22696C132.264 9.78104 131.995 10.5506 131.995 11.5357C131.995 12.5207 132.264 13.3057 132.803 13.8905C133.357 14.46 134.026 14.7447 134.811 14.7447C135.596 14.7447 136.258 14.46 136.797 13.8905C137.351 13.321 137.628 12.5438 137.628 11.5587Z" fill="#413D45"/>
</svg>
